{"title":"Aurangzeb (2013) 720p BRrip x264 Junaid-Zia (PimpRG)","uid":8780712,"size":1325238534,"categoryP":"video","categoryS":"hd___movies","magnet":"?xt=urn:btih:49edc60f9b9d46b260a17d9a0773930e5cddfd29&amp;dn=Aurangzeb+%282013%29+720p+BRrip+x264+Junaid-Zia+%28PimpRG%29&amp;tr=udp%3A%2F%2Ftracker.openbittorrent.com%3A80&amp;tr=udp%3A%2F%2Fopen.demonii.com%3A1337&amp;tr=udp%3A%2F%2Ftracker.coppersurfer.tk%3A6969&amp;tr=udp%3A%2F%2Fexodus.desync.com%3A6969","seeders":1,"leechers":0,"uploader":"junaidzia","files":14,"time":1375702675,"description":"[IMG]http://imageshack.us/a/img713/9855/x0yn.jpg[/IMG]\n\n\nIMDB : [url]http://www.imdb.com/title/tt2804026/[/url]\n\n\n[b]General[/b]\nFormat                         : Matroska\nFormat version                 : Version 2\nFile size                      : 1.22 GiB\nDuration                       : 2h 14mn\nOverall bit rate               : 1 303 Kbps\n\n[b]Video[/b]\nID                             : 1\nFormat                         : AVC\nFormat/Info                    : Advanced Video Codec\nFormat profile                 : &lt;a class=&quot;__cf_email__&quot; href=&quot;/cdn-cgi/l/email-protection&quot; data-cfemail=&quot;f2ba9b959ab2bec1dcc3&quot;&gt;[email&amp;#160;protected]&lt;/a&gt;&lt;script cf-hash='f9e31' type=&quot;text/javascript&quot;&gt;\n/* &lt;![CDATA[ */!function(){try{var t=&quot;currentScript&quot;in document?document.currentScript:function(){for(var t=document.getElementsByTagName(&quot;script&quot;),e=t.length;e--;)if(t[e].getAttribute(&quot;cf-hash&quot;))return t[e]}();if(t&amp;&amp;t.previousSibling){var e,r,n,i,c=t.previousSibling,a=c.getAttribute(&quot;data-cfemail&quot;);if(a){for(e=&quot;&quot;,r=parseInt(a.substr(0,2),16),n=2;a.length-n;n+=2)i=parseInt(a.substr(n,2),16)^r,e+=String.fromCharCode(i);e=document.createTextNode(e),c.parentNode.replaceChild(e,c)}}}catch(u){}}();/* ]]&gt; */&lt;/script&gt;\nFormat settings, CABAC         : Yes\nFormat settings, ReFrames      : 5 frames\nCodec ID                       : V_MPEG4/ISO/AVC\nDuration                       : 2h 14mn\nBit rate                       : 1 149 Kbps\nWidth                          : 1 280 pixels\nHeight                         : 544 pixels\nDisplay aspect ratio           : 2.35:1\nFrame rate mode                : Constant\nFrame rate                     : 24.000 fps\nColor space                    : YUV\nChroma subsampling             : 4:2:0\nBit depth                      : 8 bits\nScan type                      : Progressive\nBits/(Pixel*Frame)             : 0.069\nStream size                    : 1.05 GiB (86%)\n\nLanguage                       : Hindi\nDefault                        : No\nForced                         : No\n\n[b]Audio[/b]\nID                             : 2\nFormat                         : AC-3\nFormat/Info                    : Audio Coding 3\nMode extension                 : CM (complete main)\nFormat settings, Endianness    : Big\nCodec ID                       : A_AC3\nDuration                       : 2h 14mn\nBit rate mode                  : Constant\nBit rate                       : 160 Kbps\nChannel(s)                     : 6 channels\nChannel positions              : Front: L C R, Side: L R, LFE\nSampling rate                  : 48.0 KHz\nBit depth                      : 16 bits\nCompression mode               : Lossy\nStream size                    : 154 MiB (12%)\nLanguage                       : Hindi\nDefault                        : No\nForced                         : No\nSubtitles File\t\t       : No\n\n\n[IMG]http://imageshack.us/a/img35/9586/b6f4.jpg[/IMG]\n[IMG]http://imageshack.us/a/img18/3923/fs5u.jpg[/IMG]\n[IMG]http://imageshack.us/a/img703/5672/z276.jpg[/IMG]\n[IMG]http://imageshack.us/a/img90/6079/vq2f.jpg[/IMG]\n[IMG]http://imageshack.us/a/img266/7825/aooe.jpg[/IMG]\n[IMG]http://imageshack.us/a/img713/1959/4rl9.jpg[/IMG]\n[IMG]http://imageshack.us/a/img7/7603/v3bo.jpg[/IMG]\n[IMG]http://imageshack.us/a/img822/7959/x6mc.jpg[/IMG]\n[IMG]http://imageshack.us/a/img837/351/w3jw.jpg[/IMG]\n\nPimpRG Facebook Page:\n\nSujaidr Facebook Page:\n\n[b]Seed After Downloading, Remember Sharing is Caring.[/b]","torrent":{"xt":"urn:btih:49edc60f9b9d46b260a17d9a0773930e5cddfd29","amp;dn":"Aurangzeb+%282013%29+720p+BRrip+x264+Junaid-Zia+%28PimpRG%29","amp;tr":["udp%3A%2F%2Ftracker.openbittorrent.com%3A80","udp%3A%2F%2Fopen.demonii.com%3A1337","udp%3A%2F%2Ftracker.coppersurfer.tk%3A6969","udp%3A%2F%2Fexodus.desync.com%3A6969"],"infoHash":"49edc60f9b9d46b260a17d9a0773930e5cddfd29","infoHashBuffer":{"type":"Buffer","data":[73,237,198,15,155,157,70,178,96,161,125,154,7,115,147,14,92,221,253,41]},"announce":[],"urlList":[]}}